<svg width="140" height="32" viewBox="0 0 140 32" fill="none" xmlns="http://www.w3.org/2000/svg">
<path d="M9.31857 10.7283L15.7002 4.34274C16.2407 3.80193 17.1198 3.80193 17.6668 4.34274L20.6102 7.2879C21.1507 7.82871 21.1507 8.70835 20.6102 9.25568L14.2285 15.6412C13.688 16.182 12.8089 16.182 12.2619 15.6412L9.31857 12.696C8.77158 12.1552 8.77158 11.2756 9.31857 10.7283Z" fill="#33D1CB"/>
<path d="M20.7209 6.10208L22.6875 4.1343L23.1758 4.62298C23.4493 4.89665 23.8856 4.89665 24.1591 4.62298L24.6475 4.1343C24.921 3.86063 24.921 3.42407 24.6475 3.1504L21.7042 0.205249C21.4307 -0.0684162 20.9944 -0.0684162 20.7209 0.205249L20.2325 0.693936C19.959 0.967601 19.959 1.40416 20.2325 1.67783L20.7209 2.16651L18.7543 4.14081L20.7209 6.10208Z" fill="#00232E"/>
<path d="M25.0057 27.8063H24.5759C29.1863 22.6913 28.7826 14.8072 23.6708 10.194C23.2345 9.79651 22.7656 9.43163 22.2772 9.10583C22.147 9.53588 21.9191 9.92683 21.6 10.2461L19.5357 12.3051C23.4884 14.6573 24.7908 19.7657 22.4465 23.7274C20.0957 27.6825 14.9904 28.9856 11.0312 26.6399C10.3018 26.2034 9.63764 25.6626 9.0711 25.024C9.05808 25.024 9.04506 25.0305 9.03203 25.0305H4.09602C4.59093 26.0405 5.22258 26.9722 5.97145 27.8128H5.55468C4.01788 27.8128 2.78062 29.0573 2.77411 30.595V31.2792C2.77411 31.6636 3.08668 31.9764 3.47088 31.9764H27.0895C27.4737 31.9764 27.7863 31.6636 27.7863 31.2792V30.582C27.7798 29.0508 26.5425 27.8063 25.0057 27.8063Z" fill="#00232E"/>
<path d="M11.1158 21.5511V20.8539C11.1158 20.4694 10.8032 20.1567 10.419 20.1567H0.696772C0.312571 20.1567 0 20.4694 0 20.8539V21.5511C0 22.7044 0.9312 23.6361 2.0838 23.6361H9.03199C10.1781 23.6296 11.1093 22.6979 11.1158 21.5511Z" fill="#00232E"/>
<path d="M9.80693 17.1203C10.0804 17.394 10.5167 17.394 10.7902 17.1203L11.2786 16.6316L8.33524 13.6799L7.84685 14.1686C7.57335 14.4423 7.57335 14.8788 7.84685 15.1525L9.80693 17.1203Z" fill="#00232E"/>
<path d="M39.2312 6.18182V28H35.3747V6.18182H39.2312ZM46.4057 28.3303C45.3688 28.3303 44.4349 28.1456 43.6039 27.7763C42.78 27.3999 42.1266 26.8459 41.6437 26.1143C41.1678 25.3828 40.9299 24.4808 40.9299 23.4084C40.9299 22.4851 41.1003 21.7216 41.4412 21.1179C41.7822 20.5142 42.2474 20.0312 42.8368 19.669C43.4263 19.3068 44.0904 19.0334 44.829 18.8487C45.5748 18.657 46.3454 18.5185 47.1408 18.4332C48.0996 18.3338 48.8773 18.245 49.4739 18.1669C50.0705 18.0817 50.5037 17.9538 50.7736 17.7834C51.0506 17.6058 51.1891 17.3324 51.1891 16.9631V16.8991C51.1891 16.0966 50.9512 15.4751 50.4753 15.0348C49.9995 14.5945 49.3141 14.3743 48.4192 14.3743C47.4746 14.3743 46.7253 14.5803 46.1714 14.9922C45.6245 15.4041 45.2552 15.8906 45.0634 16.4517L41.4626 15.9403C41.7466 14.946 42.2154 14.1151 42.8688 13.4474C43.5222 12.7727 44.3212 12.2685 45.2658 11.9347C46.2104 11.5938 47.2545 11.4233 48.3979 11.4233C49.1863 11.4233 49.9711 11.5156 50.7523 11.7003C51.5336 11.8849 52.2474 12.1903 52.8937 12.6165C53.54 13.0355 54.0584 13.6072 54.4491 14.3317C54.8468 15.0561 55.0456 15.9616 55.0456 17.0483V28H51.3383V25.7521H51.2104C50.976 26.2067 50.6458 26.6328 50.2197 27.0305C49.8006 27.4212 49.2715 27.7372 48.6323 27.9787C48.0002 28.2131 47.258 28.3303 46.4057 28.3303ZM47.4072 25.4964C48.1813 25.4964 48.8525 25.3437 49.4206 25.0384C49.9888 24.7259 50.4256 24.3139 50.731 23.8026C51.0435 23.2912 51.1998 22.7337 51.1998 22.13V20.2017C51.079 20.3011 50.8731 20.3935 50.5819 20.4787C50.2978 20.5639 49.9782 20.6385 49.6231 20.7024C49.2679 20.7663 48.9164 20.8232 48.5684 20.8729C48.2204 20.9226 47.9185 20.9652 47.6628 21.0007C47.0876 21.0788 46.5726 21.2067 46.1181 21.3842C45.6635 21.5618 45.3049 21.8104 45.0421 22.13C44.7793 22.4425 44.6479 22.8473 44.6479 23.3445C44.6479 24.0547 44.9072 24.5909 45.4256 24.9531C45.9441 25.3153 46.6046 25.4964 47.4072 25.4964ZM57.5939 28V6.18182H61.4505V14.3423H61.6103C61.8091 13.9446 62.0897 13.522 62.4519 13.0746C62.8141 12.62 63.3042 12.233 63.9221 11.9134C64.54 11.5866 65.3283 11.4233 66.2871 11.4233C67.5513 11.4233 68.6912 11.7464 69.7069 12.3928C70.7296 13.032 71.5393 13.9801 72.1358 15.2372C72.7395 16.4872 73.0414 18.0213 73.0414 19.8395C73.0414 21.6364 72.7466 23.1634 72.1572 24.4205C71.5677 25.6776 70.7651 26.6364 69.7495 27.2969C68.7339 27.9574 67.5833 28.2876 66.2978 28.2876C65.3603 28.2876 64.5826 28.1314 63.9647 27.8189C63.3468 27.5064 62.8496 27.13 62.4732 26.6896C62.1039 26.2422 61.8162 25.8196 61.6103 25.4219H61.3866V28H57.5939ZM61.3759 19.8182C61.3759 20.8764 61.5251 21.8033 61.8233 22.5987C62.1287 23.3942 62.5655 24.0156 63.1337 24.4631C63.709 24.9034 64.405 25.1236 65.2218 25.1236C66.0741 25.1236 66.7878 24.8963 67.3631 24.4418C67.9384 23.9801 68.3716 23.3516 68.6628 22.5561C68.9611 21.7536 69.1103 20.8409 69.1103 19.8182C69.1103 18.8026 68.9647 17.9006 68.6735 17.1122C68.3823 16.3239 67.9491 15.706 67.3738 15.2585C66.7985 14.8111 66.0812 14.5874 65.2218 14.5874C64.3979 14.5874 63.6983 14.804 63.1231 15.2372C62.5478 15.6705 62.111 16.2777 61.8127 17.0589C61.5215 17.8402 61.3759 18.7599 61.3759 19.8182ZM81.9578 28.3196C80.3597 28.3196 78.9748 27.968 77.8029 27.2649C76.6311 26.5618 75.722 25.5781 75.0757 24.3139C74.4365 23.0497 74.1168 21.5724 74.1168 19.8821C74.1168 18.1918 74.4365 16.7109 75.0757 15.4396C75.722 14.1683 76.6311 13.1811 77.8029 12.478C78.9748 11.7749 80.3597 11.4233 81.9578 11.4233C83.5558 11.4233 84.9407 11.7749 86.1126 12.478C87.2845 13.1811 88.19 14.1683 88.8292 15.4396C89.4755 16.7109 89.7987 18.1918 89.7987 19.8821C89.7987 21.5724 89.4755 23.0497 88.8292 24.3139C88.19 25.5781 87.2845 26.5618 86.1126 27.2649C84.9407 27.968 83.5558 28.3196 81.9578 28.3196ZM81.9791 25.2301C82.8455 25.2301 83.57 24.9922 84.1524 24.5163C84.7347 24.0334 85.168 23.3871 85.4521 22.5774C85.7433 21.7678 85.8889 20.8658 85.8889 19.8714C85.8889 18.87 85.7433 17.9645 85.4521 17.1548C85.168 16.3381 84.7347 15.6882 84.1524 15.2053C83.57 14.7223 82.8455 14.4808 81.9791 14.4808C81.0913 14.4808 80.3526 14.7223 79.7632 15.2053C79.1808 15.6882 78.744 16.3381 78.4528 17.1548C78.1687 17.9645 78.0267 18.87 78.0267 19.8714C78.0267 20.8658 78.1687 21.7678 78.4528 22.5774C78.744 23.3871 79.1808 24.0334 79.7632 24.5163C80.3526 24.9922 81.0913 25.2301 81.9791 25.2301ZM91.3589 28V25.5497L99.7964 14.9709V14.8324H91.6358V11.6364H104.516V14.2678L96.4831 24.6655V24.804H104.793V28H91.3589ZM113.693 28.3196C112.053 28.3196 110.636 27.9787 109.442 27.2969C108.256 26.608 107.344 25.6349 106.705 24.3778C106.065 23.1136 105.746 21.6257 105.746 19.9141C105.746 18.2308 106.065 16.7536 106.705 15.4822C107.351 14.2038 108.253 13.2095 109.411 12.4993C110.568 11.782 111.928 11.4233 113.491 11.4233C114.499 11.4233 115.451 11.5866 116.346 11.9134C117.248 12.233 118.043 12.7301 118.732 13.4048C119.428 14.0795 119.975 14.9389 120.373 15.983C120.771 17.0199 120.969 18.2557 120.969 19.6903V20.8729H107.557V18.2734H117.273C117.266 17.5348 117.106 16.8778 116.793 16.3026C116.481 15.7202 116.044 15.2621 115.483 14.9283C114.929 14.5945 114.283 14.4276 113.544 14.4276C112.756 14.4276 112.063 14.6193 111.467 15.0028C110.87 15.3793 110.405 15.8764 110.071 16.4943C109.744 17.1051 109.577 17.7763 109.57 18.5078V20.777C109.57 21.7287 109.744 22.5455 110.092 23.2273C110.44 23.902 110.927 24.4205 111.552 24.7827C112.177 25.1378 112.908 25.3153 113.746 25.3153C114.308 25.3153 114.815 25.2372 115.27 25.081C115.724 24.9176 116.119 24.6797 116.452 24.3672C116.786 24.0547 117.038 23.6676 117.209 23.206L120.81 23.6108C120.582 24.5625 120.149 25.3935 119.51 26.1037C118.878 26.8068 118.068 27.3537 117.081 27.7443C116.094 28.1278 114.965 28.3196 113.693 28.3196ZM126.589 18.4119V28H122.732V11.6364H126.418V14.4169H126.61C126.986 13.5007 127.586 12.7727 128.41 12.233C129.241 11.6932 130.268 11.4233 131.489 11.4233C132.618 11.4233 133.602 11.6648 134.44 12.1477C135.285 12.6307 135.939 13.3303 136.4 14.2464C136.869 15.1626 137.1 16.2741 137.093 17.581V28H133.236V18.1776C133.236 17.0838 132.952 16.228 132.384 15.6101C131.823 14.9922 131.045 14.6832 130.051 14.6832C129.376 14.6832 128.776 14.8324 128.251 15.1307C127.732 15.4219 127.324 15.8445 127.025 16.3984C126.734 16.9524 126.589 17.6236 126.589 18.4119Z" fill="#00232E"/>
</svg>
