<svg xmlns="http://www.w3.org/2000/svg" id="Layer_1" data-name="Layer 1" width="137.09" height="31.98" viewBox="0 0 137.09 31.98"><defs><style>.cls-1{fill:#114c5f;}.cls-2{fill:#fff;}</style></defs><title>logo-white</title><path class="cls-1" d="M9.32,10.73,15.7,4.34a1.4,1.4,0,0,1,2,0l2.94,3a1.4,1.4,0,0,1,0,2l-6.38,6.38a1.4,1.4,0,0,1-2,0L9.32,12.7A1.38,1.38,0,0,1,9.32,10.73Z" transform="translate(0 0)"></path><path class="cls-2" d="M20.72,6.1l2-2,.49.49a.68.68,0,0,0,1,0l.49-.49a.69.69,0,0,0,0-1L21.7.21a.68.68,0,0,0-1,0l-.49.48a.71.71,0,0,0,0,1l.49.49-2,2Z" transform="translate(0 0)"></path><path class="cls-2" d="M25,27.81h-.43a12.49,12.49,0,0,0-.91-17.62,12,12,0,0,0-1.39-1.08,2.72,2.72,0,0,1-.68,1.14l-2.06,2.06A8.33,8.33,0,0,1,11,26.64a8.46,8.46,0,0,1-2-1.62h-5A12.1,12.1,0,0,0,6,27.81H5.55a2.79,2.79,0,0,0-2.78,2.78v.69a.71.71,0,0,0,.7.7H27.09a.71.71,0,0,0,.7-.7v-.7A2.78,2.78,0,0,0,25,27.81Z" transform="translate(0 0)"></path><path class="cls-2" d="M11.12,21.55v-.7a.7.7,0,0,0-.7-.69H.7a.69.69,0,0,0-.7.69v.7a2.09,2.09,0,0,0,2.08,2.09H9A2.11,2.11,0,0,0,11.12,21.55Z" transform="translate(0 0)"></path><path class="cls-2" d="M9.81,17.12a.69.69,0,0,0,1,0l.49-.49L8.34,13.68l-.49.49a.68.68,0,0,0,0,1Z" transform="translate(0 0)"></path><path class="cls-2" d="M39.23,6.18V28H35.37V6.18Zm7.18,22.15a6.84,6.84,0,0,1-2.81-.55,4.62,4.62,0,0,1-2-1.67,4.89,4.89,0,0,1-.71-2.7,4.62,4.62,0,0,1,.51-2.29,3.9,3.9,0,0,1,1.4-1.45,6.94,6.94,0,0,1,2-.82,17.14,17.14,0,0,1,2.31-.42c1-.1,1.74-.18,2.33-.26a3.52,3.52,0,0,0,1.3-.39.89.89,0,0,0,.42-.82V16.9A2.46,2.46,0,0,0,50.48,15a3,3,0,0,0-2.06-.66,3.71,3.71,0,0,0-2.25.62,3.1,3.1,0,0,0-1.11,1.46l-3.6-.51a5.88,5.88,0,0,1,1.41-2.49,6.09,6.09,0,0,1,2.4-1.52,9.13,9.13,0,0,1,3.13-.51,10.41,10.41,0,0,1,2.35.28,6.4,6.4,0,0,1,2.14.92,4.6,4.6,0,0,1,1.56,1.71,5.58,5.58,0,0,1,.6,2.72V28H51.34V25.75h-.13a4.51,4.51,0,0,1-1,1.28,4.77,4.77,0,0,1-1.59.95A6.47,6.47,0,0,1,46.41,28.33Zm1-2.83a4.26,4.26,0,0,0,2-.46,3.34,3.34,0,0,0,1.31-1.24,3.17,3.17,0,0,0,.47-1.67V20.2a1.91,1.91,0,0,1-.62.28,8.63,8.63,0,0,1-1,.22c-.35.07-.7.12-1,.17l-.91.13a7.23,7.23,0,0,0-1.54.38,2.55,2.55,0,0,0-1.08.75A2.06,2.06,0,0,0,45.43,25,3.29,3.29,0,0,0,47.41,25.5ZM57.59,28V6.18h3.86v8.16h.16a7.29,7.29,0,0,1,.84-1.27,4.48,4.48,0,0,1,1.47-1.16,5.15,5.15,0,0,1,2.37-.49,6.31,6.31,0,0,1,3.42,1,6.6,6.6,0,0,1,2.43,2.85,10.57,10.57,0,0,1,.9,4.6,10.72,10.72,0,0,1-.88,4.58,6.7,6.7,0,0,1-2.41,2.88,6.21,6.21,0,0,1-3.45,1A5.21,5.21,0,0,1,64,27.82a4.84,4.84,0,0,1-1.49-1.13,7.5,7.5,0,0,1-.86-1.27h-.22V28Zm3.79-8.18a8.11,8.11,0,0,0,.44,2.78,4.32,4.32,0,0,0,1.31,1.86,3.34,3.34,0,0,0,2.09.66,3.3,3.3,0,0,0,2.14-.68,4.16,4.16,0,0,0,1.3-1.88,7.83,7.83,0,0,0,.45-2.74,7.82,7.82,0,0,0-.44-2.71,4,4,0,0,0-1.3-1.85,3.75,3.75,0,0,0-4.25,0,4,4,0,0,0-1.31,1.82A7.92,7.92,0,0,0,61.38,19.82ZM82,28.32a7.87,7.87,0,0,1-4.16-1.06,7.06,7.06,0,0,1-2.72-3,9.67,9.67,0,0,1-1-4.43,9.74,9.74,0,0,1,1-4.44,7.09,7.09,0,0,1,2.72-3,8.67,8.67,0,0,1,8.31,0,7.09,7.09,0,0,1,2.72,3,9.62,9.62,0,0,1,1,4.44,9.55,9.55,0,0,1-1,4.43,7.06,7.06,0,0,1-2.72,3A7.83,7.83,0,0,1,82,28.32Zm0-3.09a3.33,3.33,0,0,0,2.17-.71,4.33,4.33,0,0,0,1.3-1.94,8.6,8.6,0,0,0,0-5.43,4.28,4.28,0,0,0-1.3-1.94A3.24,3.24,0,0,0,82,14.48a3.35,3.35,0,0,0-2.22.73,4.37,4.37,0,0,0-1.31,1.94A8.3,8.3,0,0,0,78,19.87a8.24,8.24,0,0,0,.42,2.71,4.43,4.43,0,0,0,1.31,1.94A3.45,3.45,0,0,0,82,25.23ZM91.36,28V25.55L99.8,15v-.14H91.64V11.64h12.88v2.63l-8,10.4v.13h8.31V28Zm22.33.32a8.46,8.46,0,0,1-4.25-1,6.94,6.94,0,0,1-2.73-2.92,9.79,9.79,0,0,1-1-4.47,9.73,9.73,0,0,1,1-4.43,7.16,7.16,0,0,1,2.7-3,7.58,7.58,0,0,1,4.08-1.08,8.46,8.46,0,0,1,2.86.49,6.52,6.52,0,0,1,2.38,1.49A7.06,7.06,0,0,1,120.37,16a10.34,10.34,0,0,1,.6,3.71v1.18H107.56v-2.6h9.71a4,4,0,0,0-.48-2,3.45,3.45,0,0,0-1.31-1.37,3.62,3.62,0,0,0-1.94-.5,3.76,3.76,0,0,0-2.07.57,4,4,0,0,0-1.4,1.49,4.35,4.35,0,0,0-.5,2v2.27a5.31,5.31,0,0,0,.52,2.45,3.77,3.77,0,0,0,1.46,1.55,4.35,4.35,0,0,0,2.2.54,4.53,4.53,0,0,0,1.52-.24,3.36,3.36,0,0,0,1.18-.71,3,3,0,0,0,.76-1.16l3.6.4a5.63,5.63,0,0,1-1.3,2.49,6.22,6.22,0,0,1-2.43,1.64A9.2,9.2,0,0,1,113.69,28.32Zm12.9-9.91V28h-3.86V11.64h3.69v2.78h.19a4.72,4.72,0,0,1,1.8-2.19,5.54,5.54,0,0,1,3.08-.81,5.74,5.74,0,0,1,2.95.73,4.81,4.81,0,0,1,2,2.1,7.07,7.07,0,0,1,.69,3.33V28h-3.85V18.18a3.64,3.64,0,0,0-.86-2.57,3,3,0,0,0-2.33-.93,3.59,3.59,0,0,0-1.8.45A3,3,0,0,0,127,16.4,4.15,4.15,0,0,0,126.59,18.41Z" transform="translate(0 0)"></path></svg>