<svg width="240" height="32" viewBox="0 0 240 32" fill="none" xmlns="http://www.w3.org/2000/svg">
  <!-- Icon Group -->
  <g id="logo-icon" transform="translate(0, 0)">
    <!-- Circular Leaf border -->
    <path d="M16 2C8.28 2 2 8.28 2 16C2 23.72 8.28 30 16 30C20.3 30 24.1 28 26.6 24.8" stroke="#10B981" stroke-width="2" stroke-linecap="round" fill="none"/>
    <path d="M26.6 24.8L28.5 27.5M26.6 24.8L23.8 25.5" stroke="#10B981" stroke-width="2" stroke-linecap="round" fill="none"/>
    
    <!-- DNA Helix strands in center -->
    <path d="M10 22C10 16 22 16 22 10" stroke="#10B981" stroke-width="2.5" fill="none" stroke-linecap="round"/>
    <path d="M10 10C10 16 22 16 22 22" stroke="#ffffff" stroke-width="2.5" fill="none" stroke-linecap="round"/>
    
    <!-- Base pairs -->
    <line x1="12" y1="13" x2="20" y2="19" stroke="#55efc4" stroke-width="1.5" stroke-opacity="0.8"/>
    <line x1="12" y1="19" x2="20" y2="13" stroke="#55efc4" stroke-width="1.5" stroke-opacity="0.8"/>
    
    <!-- Nodes -->
    <circle cx="10" cy="10" r="2.5" fill="#ffffff"/>
    <circle cx="22" cy="10" r="2.5" fill="#10B981"/>
    <circle cx="10" cy="22" r="2.5" fill="#10B981"/>
    <circle cx="22" cy="22" r="2.5" fill="#ffffff"/>
  </g>
  
  <!-- Text Group -->
  <g id="logo-text" transform="translate(38, 0)">
    <!-- "Stellvard" -->
    <text x="0" y="22" font-family="Inter, Heebo, system-ui, sans-serif" font-weight="800" font-size="20" fill="#ffffff" letter-spacing="-0.03em">Stellvard</text>
    <!-- "Bioscience" -->
    <text x="96" y="22" font-family="Inter, Heebo, system-ui, sans-serif" font-weight="400" font-size="20" fill="#10B981" letter-spacing="-0.03em">Bioscience</text>
  </g>
</svg>